<?xml version="1.0" encoding="utf-8"?>
<!DOCTYPE svg PUBLIC "-//W3C//DTD SVG 1.1//EN" "http://www.w3.org/Graphics/SVG/1.1/DTD/svg11.dtd">
<svg version="1.1" xmlns="http://www.w3.org/2000/svg" xmlns:xlink="http://www.w3.org/1999/xlink" x="0px" y="0px" viewBox="0 0 1000 1000" enable-background="new 0 0 1000 1000" xml:space="preserve">
<g><path style="fill:#094ebc;" d="M973.6,515.9c-2,5-5,9.6-9,13.7L515.3,978.1c-15.9,15.8-41.6,15.8-57.5,0c-11.7-11.7-14.7-28.7-9.1-43.2c-1-3.5-2.2-7-2.2-10.9V725.3H62.4c-21.9,0-39.7-17.8-39.7-39.7h0h0V314.8c0-13.9,7.6-25.6,18.5-32.7c6.2-4.1,13.2-7,21.2-7h384.1V76.4c0-4.8,1.2-9.4,2.8-13.6c-4.5-14-1.6-29.8,9.5-40.9c15.9-15.8,41.6-15.8,57.5,0l449.3,448.6C978,482.8,980.4,500.9,973.6,515.9z M507.3,347.6h2.2V346c-0.3,0.3-0.6,0.6-1,0.8C508.1,347.1,507.7,347.3,507.3,347.6z"/></g>
</svg>
